<svg xmlns="http://www.w3.org/2000/svg" viewBox="0 0 512 512" width="512" height="512">
  <defs>
    <linearGradient id="bgGradient" x1="0%" y1="0%" x2="100%" y2="100%">
      <stop offset="0%" style="stop-color:#667eea"/>
      <stop offset="100%" style="stop-color:#764ba2"/>
    </linearGradient>
    <linearGradient id="bookGradient" x1="0%" y1="0%" x2="100%" y2="100%">
      <stop offset="0%" style="stop-color:#ffffff"/>
      <stop offset="100%" style="stop-color:#e8e8ff"/>
    </linearGradient>
  </defs>
  
  <circle cx="256" cy="256" r="240" fill="url(#bgGradient)"/>
  <circle cx="256" cy="256" r="208" fill="none" stroke="#ffffff" stroke-width="4" opacity="0.3"/>
  
  <ellipse cx="256" cy="256" rx="224" ry="80" fill="none" stroke="#ffffff" stroke-width="3" opacity="0.25" transform="rotate(-30 256 256)"/>
  <ellipse cx="256" cy="256" rx="224" ry="80" fill="none" stroke="#ffffff" stroke-width="3" opacity="0.25" transform="rotate(30 256 256)"/>
  
  <g transform="translate(128, 160)">
    <path d="M128 48 L128 192 Q64 176 0 192 L0 48 Q64 32 128 48 Z" fill="url(#bookGradient)" opacity="0.95"/>
    <path d="M128 48 L128 192 Q192 176 256 192 L256 48 Q192 32 128 48 Z" fill="url(#bookGradient)" opacity="0.95"/>
    <line x1="128" y1="32" x2="128" y2="208" stroke="#667eea" stroke-width="4"/>
    <line x1="24" y1="80" x2="104" y2="72" stroke="#764ba2" stroke-width="3" opacity="0.4"/>
    <line x1="24" y1="112" x2="104" y2="104" stroke="#764ba2" stroke-width="3" opacity="0.4"/>
    <line x1="24" y1="144" x2="104" y2="136" stroke="#764ba2" stroke-width="3" opacity="0.4"/>
    <line x1="152" y1="72" x2="232" y2="80" stroke="#764ba2" stroke-width="3" opacity="0.4"/>
    <line x1="152" y1="104" x2="232" y2="112" stroke="#764ba2" stroke-width="3" opacity="0.4"/>
    <line x1="152" y1="136" x2="232" y2="144" stroke="#764ba2" stroke-width="3" opacity="0.4"/>
  </g>
  
  <circle cx="96" cy="112" r="8" fill="#ffffff" opacity="0.6"/>
  <circle cx="416" cy="128" r="10" fill="#ffffff" opacity="0.5"/>
  <circle cx="80" cy="384" r="6" fill="#ffffff" opacity="0.4"/>
  <circle cx="432" cy="368" r="8" fill="#ffffff" opacity="0.5"/>
</svg>
